# xmcd CD database file
#
# Track frame offsets:
#	150
#	26408
#	41873
#	63380
#	86183
#	101490
#	116998
#	135470
#	154820
#	172555
#	189505
#	202718
#
# Disc length: 3052 seconds
#
# Revision: 2
# Processed by: cddbd v1.5.2PL0 Copyright (c) Steve Scherf et al.
# Submitted via: CDex 1.70beta2
#
DISCID=980bea0c
DTITLE=Waymond Harding - King of Soul
DYEAR=1900
DGENRE=Soul
TTITLE0=Waymond Harding - Mustang Sally
TTITLE1=Waymond Harding - Knock on Wood
TTITLE2=Waymond Harding - Unchain my Heart
TTITLE3=Waymond Harding - Knockin´  on Heavens Door
TTITLE4=Waymond Harding - The Wanderer
TTITLE5=Waymond Harding - I Feel Good
TTITLE6=Waymond Harding - To Love Somebody
TTITLE7=Waymond Harding - Old Time Rock ´n´ Roll
TTITLE8=Waymond Harding - Shout
TTITLE9=Waymond Harding - Stand by me
TTITLE10=Waymond Harding - 16 Candles
TTITLE11=Waymond Harding - How Long
EXTD=
EXTT0=
EXTT1=
EXTT2=
EXTT3=
EXTT4=
EXTT5=
EXTT6=
EXTT7=
EXTT8=
EXTT9=
EXTT10=
EXTT11=
PLAYORDER=
